# xmcd CD database file
#
# Track frame offsets:
#	150
#	1992
#	15560
#	27605
#	39943
#	51784
#	62706
#	71396
#	88594
#	108198
#	130929
#	143342
#	169934
#	189456
#	205025
#	225290
#	240167
#	248046
#	257214
#	276728
#	298933
#	323800
#	334394
#
# Disc length: 4687 seconds
#
# Revision: 3
# Processed by: cddbd v1.5.2PL0 Copyright (c) Steve Scherf et al.
# Submitted via: CDex 1.51
#
DISCID=41124d17
DTITLE=Various Artist - The Blues Legacy: Lost and Found Series Vol. 2
DYEAR=1958
DGENRE=Blues
TTITLE0=Chris Barber - An introduction by Chris Barber
TTITLE1=Sonny Terry and Brownie McGhee - Poor Man Blues
TTITLE2=Sonny Terry and Brownie McGhee - Boogie On The Blues
TTITLE3=Sonny Terry and Brownie McGhee - When Things Go Wrong
TTITLE4=Sonny Terry and Brownie McGhee - How Long Blues
TTITLE5=Sonny Terry and Brownie McGhee - Do Lord
TTITLE6=Chris Barber - Chris Barbers introduces Muddy Waters and Otis Spann
TTITLE7=Muddy Waters with Otis Spann - Hoochie Coochie Man
TTITLE8=Muddy Waters with Otis Spann - Blow Wind Blow
TTITLE9=Muddy Waters with Otis Spann - Long Distance Call
TTITLE10=Muddy Waters with Otis Spann - Baby Pease Don't Go
TTITLE11=Muddy Waters with Otis Spann - Blues Before Sunrise
TTITLE12=Muddy Waters - Rollin' Stone
TTITLE13=Muddy Waters with Otis Spann - I Can't Be Satisfied
TTITLE14=Muddy Waters with Otis Spann - I Feel Lke Going Home
TTITLE15=Muddy Waters with Otis Spann - Walkin' Thru The Park
TTITLE16=Muddy Waters with Otis Spann - Walkin' Thru The Park (Reprise)
TTITLE17=Chris Barber - Chris Barbers introduces Champion Jack Dupree
TTITLE18=Champion Jack Dupree - Merry Christmas Blues
TTITLE19=Champion Jack Dupree - Mother-In-Law Blues
TTITLE20=Champion Jack Dupree - When Things Go Wrong
TTITLE21=Chris Barber - Chris Barbers introduces Louis Jordan
TTITLE22=Louis Jordan - T'ain't Nobody's Business
EXTD=YEAR: 1958
EXTT0=
EXTT1=
EXTT2=
EXTT3=
EXTT4=
EXTT5=
EXTT6=
EXTT7=
EXTT8=
EXTT9=
EXTT10=
EXTT11=
EXTT12=
EXTT13=
EXTT14=
EXTT15=
EXTT16=
EXTT17=
EXTT18=
EXTT19=
EXTT20=
EXTT21=
EXTT22=
PLAYORDER=
